<svg xmlns="http://www.w3.org/2000/svg" width="512" height="512" viewBox="0 0 512 512">
  <!-- Fresh gradient background -->
  <rect width="512" height="512" fill="#E8F5E9"/>
  <circle cx="256" cy="256" r="230" fill="#4CAF50" opacity="0.15"/>

  <!-- Fresh leaf design -->
  <g transform="translate(256, 256) scale(3.8)">
    <!-- Main leaf body -->
    <path d="M0,-50 C-15,-50 -25,-40 -30,-28 C-35,-16 -38,0 -35,16 C-32,32 -23,45 -10,50 C-5,52 0,53 5,52 C15,49 23,42 27,33 C31,24 32,12 29,-2 C26,-16 19,-28 10,-35 C7,-37 3,-50 0,-50 Z"
          fill="#2E7D32" stroke-width="0"/>

    <!-- Leaf highlight -->
    <path d="M0,-45 C-13,-45 -20,-38 -24,-28 C-27,-19 -28,-8 -26,3 C-25,9 -22,15 -18,20 C-21,8 -22,-3 -20,-13 C-18,-23 -14,-33 -7,-40 C-5,-42 -2.5,-43.5 0,-45 Z"
          fill="#4CAF50" fill-opacity="0.7" stroke-width="0"/>

    <!-- Central vein -->
    <line x1="0" y1="-45" x2="-10" y2="50" stroke="#1B5E20" stroke-width="2.5" stroke-linecap="round"/>

    <!-- Side veins - left -->
    <line x1="-7" y1="-20" x2="-25" y2="-10" stroke="#1B5E20" stroke-width="1.5" stroke-linecap="round"/>
    <line x1="-7" y1="-5" x2="-28" y2="8" stroke="#1B5E20" stroke-width="1.5" stroke-linecap="round"/>
    <line x1="-8" y1="10" x2="-30" y2="28" stroke="#1B5E20" stroke-width="1.5" stroke-linecap="round"/>

    <!-- Side veins - right -->
    <line x1="-3" y1="-20" x2="15" y2="-10" stroke="#1B5E20" stroke-width="1.5" stroke-linecap="round"/>
    <line x1="-3" y1="-5" x2="18" y2="8" stroke="#1B5E20" stroke-width="1.5" stroke-linecap="round"/>
    <line x1="-4" y1="10" x2="17" y2="28" stroke="#1B5E20" stroke-width="1.5" stroke-linecap="round"/>

    <!-- Water droplet -->
    <path d="M18,-25 C18,-25 14,-32 10,-32 C6,-32 2,-25 2,-25 C2,-21 4.5,-18 10,-18 C15.5,-18 18,-21 18,-25 Z"
          fill="#81D4FA"/>

    <!-- Droplet highlight -->
    <ellipse cx="11" cy="-29" rx="2" ry="2.5" fill="#FFFFFF" opacity="0.6"/>
  </g>
</svg>
